# xmcd CD database file
#
# Track frame offsets:
#	150
#	34232
#	69947
#	106443
#	128240
#	171934
#	213145
#	253277
#	271191
#	307122
#
# Disc length: 4380 seconds
#
# Revision: 0
# Processed by: cddbd v1.5.2PL0 Copyright (c) Steve Scherf et al.
# Submitted via: CDex 1.70beta2
#
DISCID=91111a0a
DTITLE=Chris Potter 10 - Song for Anyone
DYEAR=2007
DGENRE=Jazz
TTITLE0=The Absence
TTITLE1=Against the Wind
TTITLE2=Closer to the Sun
TTITLE3=Family Tree
TTITLE4=Chief Seattle
TTITLE5=Cupid and Psyche
TTITLE6=Song for Anyone
TTITLE7=The Arc of a Day
TTITLE8=Estrellas del Sur
TTITLE9=All by All
EXTD=YEAR: 2007
EXTT0=
EXTT1=
EXTT2=
EXTT3=
EXTT4=
EXTT5=
EXTT6=
EXTT7=
EXTT8=
EXTT9=
PLAYORDER=
